<svg width="355" height="356" viewBox="0 0 355 356" fill="none" xmlns="http://www.w3.org/2000/svg">
<path d="M0.197754 355.156V245.281C0.20637 235.485 4.10111 226.093 11.0257 219.17L218.11 11.3894C221.591 7.89575 225.729 5.12651 230.284 3.24146C234.839 1.35641 239.722 0.392858 244.651 0.406391C249.581 0.419923 254.458 1.41027 259.003 3.3203C263.548 5.23034 267.67 8.02225 271.132 11.535L351.01 92.5557C353.498 95.0428 354.912 98.4079 354.948 101.927V338.898C354.948 343.21 353.237 347.346 350.191 350.394C347.145 353.443 343.013 355.156 338.706 355.156H197.685C195.967 355.156 194.265 354.817 192.678 354.158C191.09 353.499 189.648 352.533 188.434 351.316L110.938 273.688L165.57 218.677L272.866 326.089V55.1245L82.3359 246.267V355.156H0.197754Z" fill="#E21327"/>
</svg>
