<svg width="198" height="42" viewBox="0 0 198 42" fill="none" xmlns="http://www.w3.org/2000/svg">
<g clip-path="url(#clip0_597_729)">
<path d="M163.88 21.0229C166.959 20.9016 169.438 20.129 171.781 18.5605C173.531 17.39 175.13 15.8534 176.646 13.8869C177.376 12.944 178.813 10.9243 180.113 9.01954C181.468 7.03601 183.738 3.64357 185.653 0.732125L186.128 0.00852093H186.062C185.888 7.91976e-06 133.286 -0.00212449 133.192 0.00426027C132.777 0.0340558 132.376 0.151111 132.049 0.338397C131.854 0.451195 131.714 0.561863 131.536 0.742764C131.362 0.917281 131.286 1.01944 130.983 1.47488C130.658 1.96225 130.38 2.36449 129.81 3.1711C129.574 3.50311 129.324 3.85853 129.254 3.95856C129.182 4.05858 128.039 5.69521 126.712 7.59361C125.384 9.49414 123.738 11.8437 123.058 12.8185C119.062 18.5328 117.343 20.991 117.347 20.9952C117.353 20.9995 138.75 21.0186 138.763 21.0144C138.769 21.0122 139.088 20.5589 139.476 20.0077C140.298 18.8286 141.272 17.4368 143.185 14.6998C145.863 10.8669 147.725 8.19378 149.069 6.25068C149.39 5.7846 149.693 5.35469 149.74 5.29297C149.854 5.14399 150.077 4.92052 150.21 4.8205C150.514 4.59277 150.857 4.46082 151.277 4.414L173.438 4.42251L173.52 4.44592C173.798 4.52254 173.955 4.70131 173.955 4.93968C173.955 5.05886 173.889 5.22699 173.781 5.39087C173.751 5.43556 173.033 6.46351 172.184 7.67661C168.323 13.2037 166.832 15.3383 165.487 17.2708C164.764 18.3094 164.76 18.3157 164.639 18.4583C164.215 18.9542 163.721 19.2288 163.083 19.316C162.979 19.3309 162.875 19.3352 162.603 19.3352C159.304 19.3288 146.272 19.3352 146.198 19.3437C145.742 19.3926 145.42 19.5288 145.174 19.7757C145.138 19.8119 145.038 19.9311 144.949 20.0439C144.777 20.261 144.247 20.9675 144.23 20.9995L163.878 21.0229H163.88Z" fill="#D33831"/>
<path d="M56.4252 4.47781H100.388C100.532 4.54592 100.651 4.70766 100.679 4.87367C100.702 5.012 100.662 5.14183 100.537 5.33337C100.498 5.39083 99.9046 6.24639 99.2154 7.23603C98.5241 8.22567 97.7204 9.3813 97.4235 9.80696C97.1287 10.2305 96.747 10.7753 96.5752 11.0179C95.7821 12.1353 95.5382 12.5205 95.4725 12.7695C95.3304 13.293 95.587 13.7527 96.1108 13.9187C96.3186 13.9847 96.1023 13.9805 99.3724 13.9911C103.236 14.0039 106.15 13.9847 107.081 13.9464C108.366 13.8932 109.341 13.774 110.34 13.5548C112.601 13.0547 114.635 12.2012 116.465 10.986C118.017 9.95593 119.41 8.66621 120.634 7.12962C121.175 6.4507 121.588 5.88458 122.589 4.45865C122.863 4.06706 123.249 3.52222 123.444 3.24768C124.076 2.35807 124.566 1.65362 124.631 1.53444C124.737 1.34289 124.788 1.10028 124.761 0.919376C124.733 0.738474 124.661 0.563955 124.546 0.41072C124.402 0.214921 124.211 0.093613 123.955 0.0340219L123.849 0.00848389H102.034C90.0352 0.00848389 77.411 0.0127357 73.9777 0.0169922C70.5444 0.0212487 67.7006 0.027633 67.6561 0.0297612C67.6116 0.0340177 67.4483 0.0446624 67.2935 0.0531754C65.2449 0.172358 63.1519 0.634187 61.3027 1.37482C59.5913 2.06224 58.0051 3.01783 56.5949 4.21391L56.4231 4.35863" fill="#D33831"/>
<path d="M197.11 0.012769C197.749 0.0915143 198.135 0.670401 197.957 1.28547C197.925 1.39401 197.829 1.59832 197.753 1.72176C197.723 1.76858 197.363 2.29 196.953 2.8774C196.544 3.46479 195.704 4.66939 195.094 5.54836C193.597 7.70215 192.063 9.90063 191.429 10.8051C189.654 13.3399 187.816 15.93 187.392 16.4961C185.918 18.4626 184.151 20.0545 182.141 21.2314C180.542 22.1679 178.778 22.8511 176.865 23.2724C175.891 23.4874 175.022 23.6108 174.048 23.6747C173.949 23.6832 173.529 23.6917 173.115 23.696C171.902 23.713 144.273 23.7236 144.137 23.7087C143.853 23.6768 143.683 23.5981 143.507 23.4129C143.414 23.3129 143.361 23.2363 143.304 23.1171C143.238 22.9745 143.223 22.9106 143.225 22.7404C143.225 22.6063 143.229 22.5808 143.257 22.4999C143.297 22.3764 143.32 22.3318 143.454 22.1274L143.566 21.9529H153.51C162.964 21.9529 164.567 21.9487 165.369 21.921C168.058 21.8295 169.71 21.54 171.438 20.8569C172.821 20.3099 174.496 19.3586 175.741 18.4094C177.306 17.2197 178.835 15.6405 180.544 13.4484C181.679 11.9948 185.093 7.09985 189.552 0.532063L189.915 0L197.113 0.0106387L197.11 0.012769Z" fill="white"/>
<path d="M7.37278 6.32732C5.14823 6.38265 3.19725 7.34675 1.81459 9.07702C1.62161 9.31965 1.61101 9.33454 0.822133 10.4583C0.109599 11.4756 0.0544641 11.5586 0.0184133 11.7182C-0.0218788 11.8799 0.00568896 12.0864 0.0841525 12.2417C0.10748 12.2864 0.879391 13.4059 1.80399 14.7318C3.60229 17.3091 3.56624 17.258 3.7168 17.3474C3.80163 17.3985 3.91402 17.4325 4.02854 17.4453C4.09428 17.4538 6.43334 17.456 11.4656 17.4538L18.8073 17.4496L18.8878 17.4262C19.0363 17.3836 19.1826 17.2921 19.2695 17.1899C19.2929 17.1623 19.4477 16.9473 19.6131 16.7132C19.8761 16.3408 19.9163 16.2769 19.9354 16.2131C19.9927 16.0258 19.8994 15.8193 19.7234 15.7321L19.6513 15.6959L15.0262 15.6895L10.4011 15.6831L10.3374 15.6576C10.2505 15.6257 10.1741 15.5703 10.119 15.5086C10.0723 15.4533 8.44158 13.1122 8.41189 13.059C8.40129 13.0398 8.39492 13.0015 8.39492 12.9675C8.39492 12.9185 8.40129 12.8994 8.42462 12.8632C8.44158 12.8376 8.46703 12.81 8.48187 12.7993C8.50944 12.7802 8.75331 12.7802 13.6859 12.7738C17.59 12.7695 18.8984 12.7653 19.0151 12.7546C19.4265 12.7206 19.7764 12.6716 20.0839 12.6078C21.8164 12.2439 23.3094 11.2755 24.4227 9.79211C24.4757 9.72188 24.9486 9.05148 25.4724 8.30447C26.0916 7.41911 26.4352 6.9211 26.4521 6.88067C26.4734 6.82959 26.4797 6.79767 26.4797 6.72956C26.4797 6.65082 26.4755 6.63379 26.4394 6.56356C26.3907 6.46566 26.3101 6.38691 26.221 6.35073L26.1595 6.3252H16.8245C11.6904 6.3252 7.43852 6.32519 7.37702 6.32732H7.37278ZM17.5709 8.11293C17.6473 8.15975 17.6876 8.27042 17.66 8.35342C17.6451 8.39386 15.9953 10.7732 15.9338 10.8371C15.8744 10.9031 15.7811 10.9605 15.6963 10.9839C15.6263 11.0031 15.5075 11.0052 12.0764 11.0052C8.64516 11.0052 8.52852 11.0052 8.48823 10.9839C8.40765 10.9435 8.36736 10.8371 8.39705 10.7477C8.40553 10.7243 8.78937 10.1624 9.25379 9.50054C9.86453 8.62158 10.1126 8.27893 10.1593 8.23211C10.2356 8.15975 10.3268 8.11292 10.4201 8.09803C10.4541 8.09164 12.0657 8.08951 14.0104 8.08951C17.5031 8.08951 17.537 8.08952 17.5709 8.11293Z" fill="white"/>
<path d="M29.2854 6.33155C29.1263 6.35921 28.9991 6.49117 28.9673 6.6593C28.9524 6.73166 28.963 6.80827 28.9948 6.88702C29.0097 6.92533 29.561 7.72342 30.4835 9.04932C31.2894 10.2071 31.9658 11.184 31.9849 11.2223C32.0316 11.3159 32.0485 11.4202 32.0337 11.5181C32.0188 11.6117 31.9934 11.6713 31.9383 11.7458C31.8704 11.8373 31.7962 11.8884 31.5778 12.0012C31.4675 12.0587 29.3362 13.1377 26.8466 14.3976C22.5396 16.5748 22.3148 16.6919 22.2512 16.7515C22.1261 16.8685 22.0837 17.009 22.1282 17.1622C22.1685 17.2899 22.2491 17.3836 22.3657 17.4304C22.4124 17.4495 22.5863 17.4495 26.0832 17.4538C28.7128 17.4559 29.7795 17.4538 29.8452 17.4453C29.8961 17.4389 29.9618 17.424 29.9958 17.4112C30.0297 17.4006 30.8695 16.9792 31.8619 16.4748C34.3643 15.2042 34.3134 15.2298 34.4024 15.2106C34.5721 15.1744 34.7439 15.2362 34.8796 15.3745C34.9072 15.4022 35.1977 15.8108 35.5285 16.2811C35.8572 16.7515 36.1435 17.158 36.1647 17.1814C36.258 17.292 36.4022 17.3836 36.5507 17.4261L36.6334 17.4495L39.9882 17.4538C42.4079 17.4559 43.3621 17.4538 43.413 17.4453C43.5021 17.4304 43.5721 17.3899 43.6315 17.3261C43.746 17.1984 43.7693 17.043 43.6972 16.8856C43.6824 16.8558 43.0122 15.8853 42.2085 14.7296C41.3687 13.525 40.7304 12.5992 40.7135 12.5609C40.6011 12.3098 40.6732 12.0629 40.9022 11.9076C40.9425 11.8799 43.0928 10.7839 45.6842 9.47072C48.9776 7.80004 50.409 7.07005 50.4451 7.03813C50.5871 6.91895 50.6317 6.72953 50.5532 6.5614C50.4917 6.42944 50.3921 6.35283 50.2563 6.33155C50.1567 6.31665 43.0144 6.31665 42.8892 6.33155C42.8383 6.33793 42.7705 6.35283 42.7365 6.36347C42.7005 6.37624 41.7165 6.86786 40.5459 7.45952C39.3775 8.04904 38.3956 8.54067 38.3659 8.55131C38.2429 8.59601 38.0902 8.58537 37.9651 8.52577C37.8315 8.46193 37.8082 8.43001 37.1784 7.52337C36.8581 7.05941 36.574 6.65291 36.5485 6.62099C36.4467 6.49329 36.3004 6.39539 36.1435 6.3507L36.0608 6.32729H32.6996C30.8525 6.32516 29.315 6.32729 29.2875 6.33367L29.2854 6.33155Z" fill="white"/>
<path d="M56.3743 6.33158C54.9959 6.38053 53.7193 6.7849 52.6081 7.5234C51.8913 8.00013 51.253 8.61519 50.7122 9.34944C50.5829 9.52609 49.2893 11.3862 49.2426 11.4671C49.1578 11.6096 49.1133 11.8182 49.1366 11.9821C49.1514 12.0949 49.179 12.1779 49.2341 12.2843C49.2575 12.329 50.023 13.4336 50.9349 14.7424C52.1373 16.4642 52.6123 17.1388 52.6653 17.1921C52.7841 17.3155 52.905 17.3857 53.0789 17.4325C53.1382 17.4496 53.5581 17.4517 58.9212 17.4517C65.0371 17.4517 64.7996 17.4538 65.2492 17.4027C66.6424 17.2453 67.9297 16.7026 68.9985 15.8236C69.4671 15.4384 69.9337 14.9446 70.3069 14.436C70.485 14.1933 75.6021 6.85938 75.6276 6.80618C75.6636 6.73382 75.6658 6.60612 75.6318 6.53164C75.6 6.4614 75.5215 6.38053 75.4537 6.35073L75.3985 6.3252H65.9978C60.8277 6.3252 56.4973 6.3252 56.3743 6.33158ZM66.6382 8.09803C66.7273 8.12144 66.8036 8.23211 66.7888 8.31511C66.7845 8.33852 65.9596 9.53247 64.3076 11.9055C62.9462 13.8592 61.8116 15.4831 61.7883 15.5107C61.7353 15.5725 61.6568 15.6278 61.5699 15.6597L61.5063 15.6852L60.5456 15.6895C59.4726 15.6938 59.4938 15.6938 59.3708 15.6193C59.3347 15.598 59.2817 15.5554 59.252 15.5256C59.1969 15.4682 56.9405 12.246 56.8918 12.1524C56.8133 12.0076 56.8091 11.8246 56.879 11.665C56.8918 11.6373 57.4198 10.8711 58.0539 9.96238C59.269 8.2236 59.2775 8.21083 59.4005 8.14698C59.5171 8.08739 59.3072 8.09164 63.0883 8.08951C65.6182 8.08951 66.6043 8.09164 66.6382 8.10016V8.09803Z" fill="white"/>
<path d="M72.612 19.4033H72.4551C72.2409 19.4331 72.1264 19.5778 71.8698 19.8864C71.6047 20.195 71.3714 20.4291 71.1106 20.7931L70.9961 20.9527L111.097 20.9782C111.123 20.9527 111.258 20.6994 111.288 20.6249C111.341 20.4887 111.354 20.4249 111.354 20.2652C111.354 20.1078 111.343 20.0439 111.292 19.9141C111.191 19.663 110.968 19.4948 110.684 19.399" fill="#D33831"/>
<path d="M5.92865 20.9207L65.5758 20.959L65.896 20.4993C66.072 20.2461 66.2311 20.0098 66.248 19.9715C66.2968 19.8694 66.3074 19.8055 66.2905 19.7246C66.2565 19.5565 66.142 19.4437 65.9702 19.416L4.87469 19.4054L5.92865 20.9207Z" fill="#D33831"/>
<path d="M64.8717 21.9593C64.8717 21.9593 64.0828 23.0937 63.1201 24.4728C62.1573 25.8519 61.3175 27.0586 61.256 27.1523C61.0143 27.5205 60.9146 27.778 60.9125 28.0376C60.9125 28.2632 60.974 28.4505 61.1457 28.7399C61.2751 28.9592 62.5602 30.8107 64.6151 33.7371C65.4337 34.9034 66.1017 35.8632 66.5831 36.5655C66.7569 36.8188 66.8269 36.906 66.9839 37.0614C67.3083 37.3849 67.6603 37.553 68.1269 37.6148C68.2605 37.6318 68.3814 37.6318 70.01 37.619C71.2887 37.6084 72.3067 37.6062 73.8568 37.6148C76.654 37.6275 76.8257 37.6275 76.9614 37.6105C77.6252 37.5275 78.1236 37.2721 78.5583 36.7933C78.6855 36.6528 78.7937 36.5081 79.116 36.0399C79.7268 35.1566 80.4965 34.0563 81.4296 32.7304C81.9958 31.9259 82.0213 31.8898 83.7369 29.4636C85.0347 27.629 85.7621 26.5947 86.3113 25.8115C86.5213 25.5114 86.7588 25.1751 86.8372 25.0623C87.1129 24.6729 87.1872 24.5473 87.2338 24.4004C87.3483 24.0216 87.1193 23.7428 86.674 23.7237C86.6104 23.7194 83.088 23.7173 78.8488 23.7151C74.6097 23.7151 71.0703 23.7088 70.9855 23.7066C70.8074 23.6981 70.7225 23.679 70.5911 23.613C70.3472 23.4895 70.1521 23.2448 70.0757 22.966C70.0567 22.8979 70.0524 22.8511 70.0524 22.7361C70.0524 22.6084 70.0567 22.5829 70.08 22.5063C70.1054 22.4275 70.1372 22.3658 70.3111 22.0594L70.3705 21.9551L110.44 21.9615C110.44 21.9806 108.109 25.2986 105.516 28.9677C103.868 31.3024 103.206 32.2388 102.492 33.2561C101.851 34.1691 101.756 34.3011 101.54 34.5884C100.231 36.3208 98.7149 37.7765 97.029 38.9172C94.8639 40.3815 92.2979 41.3924 89.8231 41.7563C89.0915 41.8649 88.0587 41.9436 86.9051 41.9777C86.6422 41.9862 81.8432 41.9883 71.1573 41.9883C62.7044 41.9883 54.5484 41.9926 53.0343 41.9968C51.5202 42.0011 50.2096 42.0011 50.1206 41.9968C49.3529 41.9606 48.7634 41.6563 48.2883 41.0455C48.2438 40.9902 47.9448 40.5666 47.6246 40.1027C46.3246 38.2362 45.2791 36.7358 42.1809 32.3112C41.0464 30.6894 40.073 29.2975 40.0178 29.2167C39.7252 28.7846 39.6064 28.442 39.6064 28.0227C39.6064 27.7077 39.6764 27.4396 39.8397 27.1203C39.9457 26.9139 40.1069 26.6798 42.0112 23.9535L43.4087 21.9551L64.8738 21.9615L64.8717 21.9593Z" fill="white"/>
<path d="M138.108 21.9593C138.108 21.9593 137.132 23.3597 135.941 25.0666C129.157 34.7778 124.952 40.7965 124.865 40.9157C124.525 41.3903 124.404 41.5222 124.154 41.6904C123.923 41.8457 123.656 41.9415 123.353 41.9777C123.293 41.9841 120.049 41.9883 113.852 41.9883C105.283 41.9883 104.432 41.9883 104.352 41.9713C104.006 41.9053 103.773 41.6755 103.662 41.2966C103.567 40.9668 103.631 40.6454 103.858 40.3155C103.898 40.258 104.167 39.8707 104.458 39.4536C104.748 39.0364 105.929 37.3445 107.081 35.6908C111.172 29.8275 116.575 22.087 116.649 21.987L116.675 21.9529L138.108 21.9593Z" fill="white"/>
</g>
<defs>
<clipPath id="clip0_597_729">
<rect width="198" height="42" fill="white"/>
</clipPath>
</defs>
</svg>
